<svg width="375" height="104" viewBox="0 0 375 104" fill="none" xmlns="http://www.w3.org/2000/svg">
<path d="M115.5 86.672C111.3 86.672 107.464 85.944 103.992 84.488C100.52 83.032 97.524 80.988 95.004 78.356C92.54 75.724 90.636 72.7 89.292 69.284C87.948 65.812 87.276 62.116 87.276 58.196C87.276 54.22 87.948 50.524 89.292 47.108C90.636 43.692 92.54 40.668 95.004 38.036C97.524 35.404 100.52 33.36 103.992 31.904C107.464 30.448 111.3 29.72 115.5 29.72C119.7 29.72 123.536 30.448 127.008 31.904C130.48 33.36 133.448 35.404 135.912 38.036C138.432 40.668 140.364 43.692 141.708 47.108C143.052 50.524 143.724 54.22 143.724 58.196C143.724 62.116 143.052 65.812 141.708 69.284C140.364 72.7 138.432 75.724 135.912 78.356C133.448 80.988 130.48 83.032 127.008 84.488C123.536 85.944 119.7 86.672 115.5 86.672ZM115.5 80.54C120.036 80.54 123.928 79.56 127.176 77.6C130.48 75.584 133 72.896 134.736 69.536C136.528 66.12 137.424 62.34 137.424 58.196C137.424 53.996 136.528 50.216 134.736 46.856C133 43.496 130.48 40.836 127.176 38.876C123.928 36.86 120.036 35.852 115.5 35.852C111.02 35.852 107.128 36.86 103.824 38.876C100.52 40.836 97.972 43.496 96.18 46.856C94.444 50.216 93.576 53.996 93.576 58.196C93.576 62.34 94.444 66.12 96.18 69.536C97.972 72.896 100.52 75.584 103.824 77.6C107.128 79.56 111.02 80.54 115.5 80.54Z" fill="white"/>
<path fill-rule="evenodd" clip-rule="evenodd" d="M93.544 79.7228L93.5516 79.731L93.5594 79.7391C93.8551 80.0479 94.1568 80.3492 94.4646 80.6429C92.5514 82.2035 90.3993 83.4852 88.008 84.488C84.536 85.944 80.7 86.672 76.5 86.672C72.3 86.672 68.464 85.944 64.992 84.488C61.52 83.032 58.524 80.988 56.004 78.356C53.54 75.724 51.636 72.7 50.292 69.284C48.948 65.812 48.276 62.116 48.276 58.196C48.276 54.22 48.948 50.524 50.292 47.108C51.636 43.692 53.54 40.668 56.004 38.036C58.524 35.404 61.52 33.36 64.992 31.904C68.464 30.448 72.3 29.72 76.5 29.72C80.7 29.72 84.536 30.448 88.008 31.904C90.3993 32.9068 92.5514 34.1885 94.4646 35.7491C94.1568 36.0427 93.8551 36.344 93.5594 36.6528L93.5516 36.6609L93.544 36.6691C92.425 37.8644 91.414 39.1353 90.5113 40.4806C89.782 39.9018 89.0036 39.3669 88.176 38.876C84.928 36.86 81.036 35.852 76.5 35.852C72.02 35.852 68.128 36.86 64.824 38.876C61.52 40.836 58.972 43.496 57.18 46.856C55.444 50.216 54.576 53.996 54.576 58.196C54.576 62.34 55.444 66.12 57.18 69.536C58.972 72.896 61.52 75.584 64.824 77.6C68.128 79.56 72.02 80.54 76.5 80.54C81.036 80.54 84.928 79.56 88.176 77.6C89.0114 77.0902 89.7966 76.5376 90.5318 75.9419C91.4293 77.2759 92.4335 78.5366 93.544 79.7228ZM101.02 72.8352C101.659 71.7027 102.222 70.5189 102.708 69.284C104.052 65.812 104.724 62.116 104.724 58.196C104.724 54.22 104.052 50.524 102.708 47.108C102.224 45.8782 101.664 44.6993 101.028 43.5712C99.8177 44.8046 98.7935 46.2082 97.9509 47.7856C97.6125 48.4415 97.3097 49.1166 97.0428 49.8113C97.9636 52.3904 98.424 55.1853 98.424 58.196C98.424 61.1676 97.9632 63.9521 97.0417 66.5494C97.3096 67.2537 97.6138 67.9411 97.954 68.6122C98.7938 70.1831 99.8142 71.5897 101.02 72.8352Z" fill="#FC7217"/>
<path d="M6.804 86V30.392H46.956V36.44H13.104V55.76H43.26V61.892H13.104V86H6.804Z" fill="white"/>
<path d="M145.804 86V30.392H169.24C172.544 30.392 175.708 31.036 178.732 32.324C181.812 33.556 184.556 35.376 186.964 37.784C189.372 40.192 191.276 43.104 192.676 46.52C194.076 49.936 194.776 53.828 194.776 58.196C194.776 62.564 194.076 66.456 192.676 69.872C191.276 73.288 189.372 76.2 186.964 78.608C184.556 81.016 181.812 82.864 178.732 84.152C175.708 85.384 172.544 86 169.24 86H145.804ZM152.104 80.036H168.988C172.964 80.036 176.408 79.028 179.32 77.012C182.232 74.996 184.472 72.336 186.04 69.032C187.664 65.728 188.476 62.116 188.476 58.196C188.476 54.22 187.664 50.58 186.04 47.276C184.472 43.972 182.232 41.34 179.32 39.38C176.408 37.364 172.964 36.356 168.988 36.356H152.104V80.036ZM217.215 86.672C211.726 86.672 207.274 85.944 203.858 84.488C200.442 82.976 197.866 80.904 196.13 78.272C194.45 75.64 193.47 72.672 193.19 69.368H199.742C199.91 72.056 200.806 74.24 202.43 75.92C204.054 77.544 206.182 78.748 208.814 79.532C211.502 80.316 214.442 80.708 217.634 80.708C222.338 80.708 226.062 79.896 228.807 78.272C231.55 76.592 232.922 74.128 232.922 70.88C232.922 68.92 232.222 67.352 230.823 66.176C229.479 64.944 227.659 63.936 225.363 63.152C223.123 62.368 220.659 61.668 217.971 61.052C215.283 60.38 212.566 59.68 209.822 58.952C207.134 58.224 204.642 57.3 202.346 56.18C200.106 55.06 198.286 53.632 196.886 51.896C195.542 50.104 194.87 47.836 194.87 45.092C194.87 40.556 196.606 36.86 200.078 34.004C203.606 31.148 208.842 29.72 215.787 29.72C220.715 29.72 224.775 30.476 227.966 31.988C231.159 33.444 233.539 35.376 235.107 37.784C236.73 40.192 237.626 42.796 237.795 45.596H231.327C230.991 42.796 229.591 40.444 227.127 38.54C224.663 36.58 220.883 35.6 215.787 35.6C212.65 35.6 210.102 35.908 208.142 36.524C206.182 37.14 204.67 37.952 203.606 38.96C202.598 39.912 201.898 40.92 201.506 41.984C201.17 43.048 201.002 44.056 201.002 45.008C201.002 46.856 201.674 48.368 203.018 49.544C204.418 50.664 206.238 51.616 208.479 52.4C210.775 53.128 213.295 53.8 216.039 54.416C218.783 55.032 221.499 55.732 224.187 56.516C226.931 57.244 229.422 58.196 231.662 59.372C233.958 60.492 235.778 61.948 237.122 63.74C238.523 65.532 239.223 67.828 239.223 70.628C239.223 75.78 237.263 79.756 233.343 82.556C229.423 85.3 224.047 86.672 217.215 86.672ZM255.202 86V36.356H235.798V30.392H280.906V36.356H261.502V86H255.202ZM281.362 86V30.392H322.27V36.44H287.662V55.088H318.574V61.22H287.662V79.952H322.27V86H281.362ZM324.908 86V30.392H351.536C357.248 30.392 361.784 31.96 365.144 35.096C368.56 38.232 370.268 42.46 370.268 47.78C370.268 51.364 369.568 54.22 368.168 56.348C366.824 58.476 365.116 60.1 363.044 61.22C360.972 62.284 358.9 63.068 356.828 63.572L371.444 86H363.968L350.528 64.664H331.208V86H324.908ZM331.208 58.7H350.444C352.46 58.7 354.504 58.392 356.576 57.776C358.648 57.16 360.384 56.068 361.784 54.5C363.24 52.876 363.968 50.636 363.968 47.78C363.968 44.252 362.764 41.48 360.356 39.464C357.948 37.392 354.756 36.356 350.78 36.356H331.208V58.7Z" fill="white"/>
<path d="M115.6 22.9078C116.974 20.2299 117.415 17.1349 117.269 14.107C117.122 11.079 116.409 8.1034 115.586 5.18055C115.355 7.22845 113.787 8.90686 111.964 9.83684C110.141 10.7668 108.075 11.0832 106.052 11.4243C104.031 11.7629 101.966 12.1593 100.216 13.2195C98.2973 14.3808 94.4556 18.4079 96.4085 24.0769C98.3033 21.7997 99.0105 21.076 100.824 19.9263C102.638 18.7765 104.729 18.1552 106.71 17.3247C108.692 16.4942 110.661 15.3729 111.808 13.5555C111.024 15.0364 109.663 16.122 108.219 16.9635C106.775 17.805 105.219 18.4463 103.78 19.291C101.174 20.8193 98.2481 23.4959 92.9645 31.7923C93.6214 30.8323 94.607 30.0688 95.6931 29.588C95.8533 29.5161 96.0152 29.4523 96.1781 29.3926C96.2986 29.3502 96.4217 29.3094 96.5431 29.2711C98.4591 28.6845 100.532 28.7592 102.549 28.8797C104.694 29.0047 106.887 29.168 108.952 28.5986C111.847 27.803 114.224 25.5842 115.6 22.9078Z" fill="#7CB041"/>
</svg>
